<svg viewBox="0 0 1022 1024" fill="currentColor" width="31.9375" height="32" xmlns="http://www.w3.org/2000/svg" xmlns:xlink="http://www.w3.org/1999/xlink">
    <path d="M529.002 1c15.74 4.96 32.36 8.1 47.060 15.22 61.4 29.68 91.8 97.48 74.84 164.14-15.86 62.36-76.84 108.499-140.4 106.2-70.080-2.52-126.22-50.88-137.98-118.9-13.58-78.48 40.56-153.48 118.92-164.82 1.9-0.28 3.7-1.2 5.56-1.84 10.66 0 21.34 0 32 0z" />
    <path d="M439.002 1025c-15.9-4.36-28.14-13.88-39.5-25.64-43.54-45.020-87.68-89.48-131.42-134.32-29.16-29.88-34.12-71.76-13.1-107.52 1.16-1.98 2.62-3.84 4.24-5.48 32.96-33.020 65.96-66 98.96-98.96 0.92-0.92 2.020-1.66 1.88-1.54 38.54 37.34 76.74 74.36 114.68 111.12-28.46 28.44-55.96 55.9-84.28 84.2 15.16 15.64 28.92 29.9 42.74 44.1 13.46 13.86 26.2 28.56 40.64 41.32 28.2 24.92 30 77.8-18.86 92.72h-16z" />
    <path d="M571.002 1025c-29.46-12.16-41.14-28.9-38.32-55.42 1.38-13 6.98-24.16 16.12-33.54 25.82-26.48 51.58-53 77.48-79.4 2.54-2.58 5.899-4.38 9.14-6.74-29.28-29.26-56.78-56.72-84.98-84.88 39.24-37.72 77.54-74.56 115.86-111.4-0.64-1.18-1.26-2.34-1.9-3.52 2.54 2.4 5.16 4.74 7.64 7.22 29.48 29.44 58.3 59.56 88.58 88.12 21.68 20.44 31.1 62.76 15.2 92.24-6.22 11.54-13.92 22.78-23 32.2-44.34 46.1-89.020 91.9-134.48 136.9-8.32 8.24-20.82 12.26-31.38 18.22h-16z" />
    <path d="M359.642 588.64v-106.66c-4.040 3.86-6.64 6.14-9.020 8.64-33.84 35.4-67.66 70.8-101.42 106.28-10.8 11.34-22.96 20.060-38.8 22.94-21.72 3.96-42.3-6.66-53.5-27.94-10.9-20.72-8.2-40 8.48-56.36 64.2-63 128.44-125.96 192.88-188.72 7.6-7.4 16.32-13.68 24.84-20.060 12.1-9.060 25.72-12.9 41.060-12.8 60.32 0.36 120.62 0.36 180.94 0 14.7-0.080 28.040 3.36 38.88 12.86 18.76 16.42 37.040 33.44 54.94 50.8 53.56 51.96 106.7 104.36 160.319 156.26 14.020 13.56 19.76 28.78 13.94 47.68-6.14 19.96-18.78 33.8-39.56 38.14-19.48 4.060-36.58-2.92-50.060-16.54-29.52-29.82-58.26-60.42-87.3-90.72-9.42-9.82-18.8-19.66-30.1-31.48v107.7h-306.5z" />
</svg>