<svg viewBox="0 0 633 1024" fill="currentColor" width="19.78125" height="32" xmlns="http://www.w3.org/2000/svg" xmlns:xlink="http://www.w3.org/1999/xlink">
    <path d="M632.278 94.297c-139.34 140.123-278.088 279.632-417.174 419.501 137.584 137.648 274.978 275.126 412.774 413.006-33.386 32.307-66.708 64.55-100.284 97.047-5.141-4.908-10.028-9.478-14.81-14.133-35.269-34.401-70.474-68.887-105.785-103.246-16.608-16.164-33.597-31.926-50.1-48.196-31.736-31.334-63.133-63.006-94.889-94.318-30.741-30.318-61.779-60.382-92.689-90.531-27.441-26.764-54.924-53.506-82.364-80.27-27.652-26.954-55.283-53.887-82.914-80.841-0.614-0.592-1.142-1.269-1.798-2.010 0.423-0.635 0.677-1.206 1.1-1.608 33.28-31.376 66.814-62.498 99.819-94.191 31.397-30.17 62.286-60.848 93.281-91.42 24.521-24.204 48.83-48.64 73.309-72.907 53.21-52.744 106.483-105.425 159.672-158.191 26.848-26.637 53.57-53.4 80.354-80.079 1.925-1.925 3.956-3.787 6.051-5.522 8.357-6.94 16.079-6.94 24.119 0.423 8.526 7.786 16.714 15.931 25.113 23.865 18.259 17.243 36.559 34.444 54.818 51.687 4.083 3.851 8.082 7.786 12.419 11.975z" />
</svg>