<svg viewBox="0 0 1320 1024" fill="currentColor" width="41.25" height="32" xmlns="http://www.w3.org/2000/svg" xmlns:xlink="http://www.w3.org/1999/xlink">
    <path d="M1319.638 259.425c0 29.54-1.241 56.847 0.246 84.151 1.49 27.058-3.474 34.009-29.782 34.258-23.577 0-46.905 0-74.454 0 8.933 19.115 17.869 34.255 23.080 50.639 5.461 17.625 10.425 36.491 10.674 54.86 0.744 110.96 1.241 221.923-0.497 332.884-0.497 38.227-2.731 77.946-13.402 114.188-16.628 55.852-78.177 94.328-136.748 93.584-60.31-0.497-112.428-39.47-135.758-98.302-2.977-7.446-15.387-16.135-23.577-16.135-144.691-0.495-289.383 0.497-434.072 0.497-41.695 0-83.392-2.482-125.086-2.233-6.949 0-17.869 7.943-20.102 14.646-21.592 63.298-82.148 105.25-148.165 101.279-62.79-3.723-127.815-56.844-135.508-118.904-6.701-53.867-5.46-108.976-5.956-163.587-0.745-80.428 0.496-161.105-0.745-241.533-0.496-36.986 8.686-70.003 26.308-101.776 1.737-3.228-5.46-16.135-9.183-16.384-23.826-1.985-48.147-0.992-71.973-2.979-5.46-0.495-14.146-9.433-14.395-14.894-0.993-32.766-0.496-65.78 0.496-98.548 0-2.731 7.197-7.2 11.168-7.2 47.899-0.495 95.799 0 143.698-0.744 5.212 0 13.154-4.964 15.387-9.682 36.483-74.719 72.47-149.437 107.96-224.652 7.941-16.632 18.613-22.838 36.979-22.838 150.896 0.496 301.791 0 452.438 0 73.71 0 147.422 0.496 221.132 0 50.628-0.248 48.395 0.993 71.228 56.598 27.3 66.279 59.069 131.068 91.828 194.864 3.723 7.2 26.308 6.454 40.207 6.702 41.446 0.746 82.892 0.249 124.34 0.497 1.487 0 3.226 1.241 2.233 0.744zM298.113 601.493c0 11.171-0.744 22.589 0.497 33.76 0.495 4.469 5.459 11.666 8.685 11.915 27.053 2.482 54.353 3.723 81.653 5.461 46.161 2.731 90.092-0.744 134.268 28.548 94.556 62.057 193.086 50.639 287.893-7.2 13.897-8.441 29.782-17.376 45.169-18.369 48.892-3.228 98.033-2.979 147.173-3.228 14.641 0 20.598-3.723 19.108-19.858-1.985-21.597-1.241-43.442-0.992-65.039 0-14.646-5.708-20.602-20.598-20.602-62.046 0-123.845-1.738-185.891-0.497-12.905 0-28.79 6.951-37.723 15.887-61.551 62.059-156.107 68.762-222.87 12.412-17.123-14.397-33.008-26.561-56.336-24.576-8.687 0.746-17.125 2.236-25.812 2.236-40.702-0.995-81.405-3.477-122.353-3.972-54.848-0.746-52.12-5.71-52.366 53.121h0.495z" />
</svg>