<svg viewBox="0 0 999 1024" fill="currentColor" width="31.21875" height="32" xmlns="http://www.w3.org/2000/svg" xmlns:xlink="http://www.w3.org/1999/xlink">
    <path d="M780.712 1.968c1.532 5.904 4.155 12.026 4.374 18.149 0 35.423-0.438 70.627-0.438 106.050 0 218.66-0.217 437.539-0.436 656.197 0 24.709-0.438 49.637-0.219 74.345 0 6.997 0.438 13.995 1.749 20.773 3.717 22.741 19.024 37.391 41.984 40.452 11.588 1.53 22.741 1.311 33.672-3.717 20.337-9.184 30.176-24.709 30.176-46.794 0.436-169.023 1.311-337.829 1.53-506.853 0-51.605-1.094-103.207-1.53-154.811 0-3.499 0-7.216 0-11.589 3.061-0.875 5.904-2.187 8.527-2.187 31.268 0.437 62.755 1.093 94.025 1.749 0.655 0 1.311 0.218 3.278 0.656 0.438 10.496 1.313 20.991 1.313 31.705 0 85.279-0.655 170.774-0.874 256.051-0.219 119.389 0 238.777-0.438 358.166 0 26.677-1.53 53.57-10.495 79.373-13.995 40.888-41.765 69.097-80.247 87.902-23.834 11.588-48.981 16.18-75.22 16.18-219.753 0-439.507 0-659.259 0-29.956 0-59.475-4.153-86.808-17.273-45.918-22.086-72.376-59.257-81.341-108.456-3.061-16.182-3.936-33.017-3.936-49.637-0.219-229.374 0-458.529 0-687.903 0-47.012 0-94.242 0-141.254 0-3.28 0.437-6.778 1.093-10.058 1.312-6.341 4.811-9.184 11.808-9.184 50.51 0.875 101.021 2.187 151.531 2.187 170.117 0 340.235 0 510.352-0.437 34.548 0 69.097 0 106.268 0l-0.438 0.219zM105.929 106.925c0 1.968-0.437 3.717-0.437 5.467-0.437 18.805-1.093 37.828-1.093 56.633 0 96.211 0 192.421 0 288.63 0 132.29 0 264.361 0 396.648 0 9.184 0.875 18.369 2.843 27.334 4.155 19.241 14.869 32.142 35.642 33.891 10.714 0.874 21.647 2.406 32.362 2.406 64.941 0 129.883-0.874 194.825-0.874 95.773 0 191.766 0.436 287.538 0.655 5.904 0 11.591 0 18.15 0 1.094-2.842 3.061-5.685 3.061-8.31-0.219-267.201-0.874-534.404-1.313-802.699l-571.576 0.219z" />
    <path d="M211.976 566.548v-106.051c2.842-0.655 6.559-2.185 10.059-2.185 41.107-0.438 81.996-0.438 123.105-0.657 49.635 0 99.271-0.219 148.906 0 21.43 0 42.858 0.438 64.287 0.874 3.061 0 6.123 0.874 10.714 1.532 1.094 6.778 3.281 13.556 3.281 20.335 0 23.615-0.655 47.23-0.874 70.846 0 0.874 0 1.749 0 2.625-1.532 13.118-3.061 14.431-16.618 14.431-91.838 0-183.456-0.438-275.294-0.438-17.273 0-34.765 0.438-52.041 0.219-4.81 0-9.621-1.094-15.088-1.53h-0.436z" />
    <path d="M211.976 337.391v-105.175c8.527-0.874 18.148-3.061 27.77-2.842 83.309 0 166.4 0.655 249.709 0.874 19.679 0 39.14-0.874 58.819-0.874 21.647 0 24.053 2.623 24.053 24.051 0 21.647 0 43.295 0 64.725 0 3.278-0.219 6.778-0.874 10.057-1.749 7.872-6.123 10.714-13.995 10.497-8.965-0.438-17.931-0.874-26.896-0.874-102.333 0-204.665 0-307.217 0-3.061 0-6.34 0-11.369 0v-0.438z" />
    <path d="M450.535 688.996c-0.874 35.861 3.5 71.503-1.091 107.362h-235.278v-107.362h236.369z" />
</svg>