<svg viewBox="0 0 1070 1024" fill="currentColor" width="33.4375" height="32" xmlns="http://www.w3.org/2000/svg" xmlns:xlink="http://www.w3.org/1999/xlink">
    <path d="M418.284 0.084c76.606 0 153.212 0 229.776 0.084 4.072 0 8.731 0.504 12.089 2.519 31.818 18.763 61.075 40.717 84.203 69.932 14.146 17.84 19.771 37.778 19.645 60.823-0.588 120.135-0.126 240.27-0.126 360.404 0 12.425-0.126 24.808-0.798 37.191-0.965 18.050-9.235 32.825-22.499 44.662-21.282 18.973-42.941 37.484-64.265 56.415-33.749 29.971-66.825 60.613-95.327 95.831-22.289 27.578-42.647 56.541-55.702 89.576-8.647 21.827-14.985 44.662-20.904 67.413-6.212 23.758-10.872 47.978-15.783 72.030-1.637 8.017-1.385 16.413-3.022 24.43-6.254 30.097-30.894 46.425-62.502 41.85-38.198-5.499-78.537-42.731-85.799-79.838-4.659-23.884-6.674-48.062-6.632-72.45 0.084-45.754 9.529-89.786 23.506-133.021 7.136-22.079 13.852-44.326 21.911-66.070 5.415-14.566-2.309-22.877-16.035-23.506-17.126-0.756-34.252-1.301-51.378-1.889-41.22-1.427-82.441-2.896-123.703-4.282-26.571-0.881-53.099-1.847-79.67-2.435-19.351-0.42-35.973-8.143-51.378-18.805-35.889-24.766-51.546-60.277-53.687-102.799-1.049-20.988 3.232-41.346 6.422-61.872 4.24-27.242 7.598-54.653 11.333-81.979 3.988-29.425 7.975-58.85 11.963-88.275 4.449-32.699 8.857-65.398 13.306-98.139 3.904-28.544 7.472-57.171 11.837-85.631 3.82-24.892 17.714-44.201 36.225-60.277 26.319-22.835 57.675-34.924 91.423-41.64 2.183-0.42 4.533-0.294 6.8-0.294h228.768z" />
    <path d="M815.585 298.826v-272.255c0-17.714 2.561-20.274 20.4-20.106 16.245 0.168 32.531-0.084 48.734 0.881 13.726 0.798 22.205 9.025 26.151 22.079 6.8 22.541 13.684 45.082 20.526 67.623 20.946 69.302 41.85 138.646 62.838 207.948 24.514 80.971 49.070 161.943 73.626 242.956 5.583 18.385 0.084 32.783-15.573 39.415-3.904 1.637-8.479 2.267-12.761 2.309-69.596 0.126-139.192 0.126-208.788 0.126-1.217 0-2.435 0-3.652-0.084-8.395-0.546-10.872-2.854-11.333-11.208-0.336-5.751-0.168-11.543-0.168-17.294v-262.265h0.084l-0.084-0.126z" />
</svg>