<svg id="info_Capa_1" viewBox="0 0 416.979 416.979" fill="currentColor" width="32" height="32" version="1.1" xmlns="http://www.w3.org/2000/svg" xmlns:xlink="http://www.w3.org/1999/xlink">
    <path d="M356.004 61.156c-81.37-81.47-213.377-81.551-294.848-0.182-81.47 81.371-81.552 213.379-0.181 294.85 81.369 81.47 213.378 81.551 294.849 0.181 81.469-81.369 81.551-213.379 0.18-294.849zM237.6 340.786c0 3.217-2.607 5.822-5.822 5.822h-46.576c-3.215 0-5.822-2.605-5.822-5.822V167.885c0-3.217 2.607-5.822 5.822-5.822h46.576c3.215 0 5.822 2.604 5.822 5.822zM208.49 137.901c-18.618 0-33.766-15.146-33.766-33.765 0-18.617 15.147-33.766 33.766-33.766s33.766 15.148 33.766 33.766c0 18.619-15.149 33.765-33.766 33.765z" />
</svg>