<svg viewBox="0 0 1024 1024" fill="currentColor" width="32" height="32" xmlns="http://www.w3.org/2000/svg" xmlns:xlink="http://www.w3.org/1999/xlink">
    <path d="M512.642 719.040c-62.621-40.757-119.084-87.243-169.392-141.372-22.714-24.411-39.907-52.43-51.582-83.633-18.253-49.461-6.58-98.069 32.055-134.368 40.754-38.42 105.072-41.179 149.012-6.368 14.010 11.251 23.986 25.897 32.477 41.392 2.122 4.033 4.458 7.854 7.217 12.95 2.334-4.671 4.033-8.492 5.943-12.313 21.439-42.454 55.828-65.379 103.377-66.014 33.75-0.637 61.771 14.222 85.332 38.42 22.501 23.349 31.415 52.005 34.174 82.998 1.487 18.043-5.518 34.812-12.31 51.158-15.921 37.358-41.181 68.351-68.988 97.217-38.208 39.484-82.148 72.384-126.513 104.862-7.005 5.095-14.010 10.401-20.802 15.284v-0.212z" />
    <path d="M267.472 103.883c-31.628 0-63.256-0.849-94.884 0-36.51 1.274-64.106 26.746-67.926 63.044-2.547 24.623-2.759 49.671-2.972 74.506 0 39.27 0.849 78.752 1.274 118.022 0 9.341-2.335 11.675-11.463 11.675-23.562 0-47.124 0-70.686 0-1.91 0-4.033 0-5.944 0-12.736-0.85-15.071-2.971-14.859-15.709 0.425-56.463 0.637-112.714 1.486-169.178 0.425-28.444 3.396-56.676 13.161-83.846 18.467-50.945 55.615-81.512 106.772-95.309 16.769-4.458 34.388-6.368 51.794-6.58 62.407-0.849 124.815-0.425 187.433-0.212 3.396 0 7.005 0.425 10.191 1.486 4.456 1.486 7.217 4.67 7.217 9.764 0 25.472 0 51.157 0 76.629 0 1.91 0 4.033-0.425 5.944-1.062 7.429-3.821 9.552-11.251 9.552-32.902 0-66.017 0-98.919 0v0.212z" />
    <path d="M759.938 1023.437c-35.236 0-70.26 0-105.497 0-5.945 0-9.129-2.547-9.129-9.129 0-27.17-0.85-54.127-1.062-81.298 0-7.217 2.549-10.401 9.766-11.251 4.244-0.425 8.702-0.425 13.16-0.425 59.012 0 117.809 0.425 176.821 0 10.826 0 21.864-1.909 32.053-5.093 26.957-8.279 41.604-28.444 44.153-55.191 2.759-28.656 1.909-57.525 2.122-86.394 0-36.511 0-73.021-0.212-109.53 0-9.978 1.274-11.463 11.463-11.463 25.473 0 51.158-0.425 76.63 0 11.461 0 12.735 1.697 12.735 13.16 0.212 43.303 0.425 86.606 0.425 129.697 0 22.926 0.85 45.85-0.637 68.776-1.909 29.931-7.642 59.222-24.198 85.332-24.198 38.633-60.072 59.012-103.8 67.289-30.356 5.733-60.921 3.396-91.489 3.609-14.434 0-28.869 0-43.303 0 0 0.425 0 1.062 0 1.487v0.425z" />
    <path d="M645.522 100.699c0-13.798 0-26.746 0-39.482-0.212-15.92-0.637-31.841-1.060-47.761-0.212-8.703 1.272-10.826 9.764-12.524 2.759-0.425 5.73-0.637 8.492-0.637 67.501 0.637 135.003 0.212 202.291 2.123 36.511 1.061 70.9 11.675 100.191 35.237 22.076 17.618 36.298 40.968 46.064 67.29 7.852 21.015 11.461 42.879 11.673 65.379 0.425 60.709 0.85 121.418 1.062 182.339 0 17.406-0.85 18.68-18.255 19.742-9.339 0.637-18.68-0.212-28.019-0.637-13.16-0.425-26.11-0.85-39.27-1.274-13.797-0.635-15.921-2.759-15.921-16.344 0-55.191 0-110.592 0-165.783 0-9.552-1.060-19.104-2.547-28.656-6.155-35.661-34.177-55.827-67.926-56.676-38.42-0.849-76.842 0-115.263 0-27.384 0-54.554-0.212-81.936-0.425-2.974 0-5.733-1.061-8.916-1.486l-0.425-0.425z" />
    <path d="M259.832 1021.95c-31.415 0-62.832 0.425-94.248 0-36.935-0.85-71.747-10.401-101.889-32.477-33.963-24.623-53.492-59.010-58.374-99.979-3.821-33.539-3.821-67.501-4.458-101.465-0.849-39.907-0.637-80.024-0.637-119.931 0-13.587 1.91-15.284 15.708-15.496 25.472-0.212 51.157 0 76.629 0 6.368 0 9.977 3.821 9.977 11.038 0 14.222-0.212 28.444-0.424 42.666-0.425 43.516-0.849 87.031-0.849 130.547 0 15.282 2.123 30.353 8.915 44.575 13.161 27.597 35.874 39.482 65.379 39.695 45.214 0.425 90.427 0.212 135.642 0.637 18.466 0 37.146 0.85 55.613 1.274 6.368 0 10.613 5.73 10.826 14.010 0 12.735 0 25.26 0 37.995 0 11.888 0.425 23.563 0 35.449-0.425 10.191-4.033 13.375-14.434 13.375-32.265 0-64.53-0.637-97.007-0.85-2.122 0-4.458 0-6.58 0v-0.425l0.212-0.637z" />
</svg>