<svg viewBox="0 0 802 1024" fill="currentColor" width="25.0625" height="32" xmlns="http://www.w3.org/2000/svg" xmlns:xlink="http://www.w3.org/1999/xlink">
    <path d="M399.652 1022.99c-111.74-118.361-223.483-235.52-313.559-370.534-51.558-77.435-87.267-160.289-86.063-256.384 2.407-189.178 151.865-359.098 341.245-390.996 215.861-36.512 432.723 128.593 458.2 346.862 14.646 123.979-25.478 230.705-96.496 329.206-88.069 121.974-190.984 231.51-296.506 338.637-1.004 1.004-2.81 1.404-7.021 3.21h0.199zM402.861 882.36c84.257-94.689 170.924-183.963 237.93-289.286 33.301-52.36 53.965-108.332 60.384-170.723 22.067-215.459-212.251-385.78-413.465-299.516-172.729 74.027-236.725 278.252-137.020 444.56 68.811 114.751 157.081 215.058 252.171 314.965z" />
    <path d="M547.906 393.865c0 76.233-66.402 142.836-143.037 143.439-80.849 0.601-148.654-66.002-148.654-145.847 0-82.453 64.397-145.245 148.053-144.644 80.245 0.604 143.638 65.602 143.638 147.051z" />
</svg>