<svg viewBox="0 0 224 1024" fill="currentColor" width="7" height="32" xmlns="http://www.w3.org/2000/svg" xmlns:xlink="http://www.w3.org/1999/xlink">
    <path d="M111.134 1024c-62.176-1.86-112.015-52.776-111.134-112.994 0.979-60.316 57.476-113.974 117.792-111.134s108.295 55.616 106.434 117.792c-1.86 61.197-50.916 107.413-113.092 106.434z" />
    <path d="M113.092 223.247c-61.295-0.881-113.974-53.658-112.113-112.113 1.86-60.218 54.637-112.015 114.953-111.134 58.358 0 108.295 53.756 107.315 113.974 0 63.155-48.958 110.253-110.253 109.274z" />
    <path d="M112.113 623.624c-62.176-1.86-113.974-54.637-111.134-113.092 2.84-61.197 56.497-112.113 115.834-110.253 60.316 1.86 108.295 55.616 106.434 117.792-1.86 60.316-50.916 106.434-111.134 105.553z" />
</svg>