<svg viewBox="0 0 858 1024" fill="currentColor" width="26.8125" height="32" xmlns="http://www.w3.org/2000/svg" xmlns:xlink="http://www.w3.org/1999/xlink">
    <path d="M857.893 1023.265h-857.893c10.565-159.117 54.548-300.769 192.751-394.127 139.713-94.435 289.774-102.197 437.247-21.993 161.919 87.968 217.977 239.323 227.895 416.119zM723.139 917.402c-9.703-137.124-153.942-256.354-302.709-251.826-149.846 4.311-267.782 116.642-284.599 251.826h587.308z" />
    <path d="M430.567 487.7c-132.381 0-244.711-113.191-244.28-245.574 0.431-131.734 110.175-241.908 241.046-242.124 134.754-0.431 247.3 111.037 245.791 242.988-1.511 132.811-112.546 244.928-242.557 244.711zM430.784 106.726c-79.342 0.431-140.79 61.016-139.497 137.557 1.294 78.696 61.878 138.203 139.926 137.771 75.031-0.432 136.047-61.878 135.401-136.477-0.43-76.972-61.448-139.066-135.83-138.635v-0.216z" />
</svg>