<svg viewBox="0 0 42 42" fill="currentColor" width="32" height="32" xmlns="http://www.w3.org/2000/svg" xmlns:xlink="http://www.w3.org/1999/xlink">
    <path d="M26.342 0c0.6963 0 1.2608 0.5653 1.2608 1.2627v5.2058c0.857 0.3876 1.6739 0.8484 2.4428 1.3743l4.4474-2.6762c0.5969-0.3591 1.3715-0.1657 1.7301 0.432l5.5025 9.1712c0.3587 0.5977 0.1655 1.3734-0.4313 1.7326l-4.3593 2.6231c0.0817 0.6577 0.1239 1.3276 0.1239 2.0074 0 0.4984-0.0227 0.9915-0.067 1.4783l4.3775 2.5311c0.603 0.3487 0.8096 1.1209 0.4615 1.7248L36.489 36.133c-0.3482 0.6039-1.1192 0.8109-1.7223 0.4622L30.479 34.116c-0.8931 0.6551-1.8563 1.22-2.8762 1.6813v4.94c0 0.6974-0.5645 1.2627-1.2608 1.2627H15.6583c-0.6963 0-1.2608-0.5653-1.2608-1.2627v-4.94c-0.9336-0.4223-1.8195-0.9313-2.6478-1.5168l-4.2424 2.5529c-0.5968 0.3591-1.3714 0.1657-1.7301-0.432l-5.5025-9.1712c-0.3586-0.5977-0.1655-1.3734 0.4314-1.7326l4.3302-2.6057c-0.0627-0.5777-0.0949-1.1646-0.0949-1.759 0-0.5843 0.0311-1.1613 0.0918-1.7295l-4.4026-2.5456c-0.603-0.3486-0.8096-1.1209-0.4615-1.7248L5.511 5.8671c0.3482-0.6039 1.1192-0.8108 1.7223-0.4622l4.4923 2.5975c0.8351-0.5927 1.7293-1.1076 2.6719-1.5339V1.2627C14.3975 0.5653 14.962 0 15.6583 0zM20.5214 12.693c-4.572 0-8.2782 3.7118-8.2782 8.2904s3.7062 8.2903 8.2782 8.2903c4.5719 0 8.2782-3.7117 8.2782-8.2903s-3.7063-8.2904-8.2782-8.2904z" />
    <defs>
        <clipPath id="settings_clip0_545_402">
            <rect width="42" height="42" />
        </clipPath>
    </defs>
</svg>