<svg viewBox="0 0 1325 1024" fill="currentColor" width="41.40625" height="32" xmlns="http://www.w3.org/2000/svg" xmlns:xlink="http://www.w3.org/1999/xlink">
    <path d="M890.184 444.611c-2.696 10.088-4.974 18.961-7.468 27.796-13.379 47.567-26.872 95.109-40.213 142.689-16.24 57.947-32.391 115.918-48.529 173.89-16.202 58.174-32.353 116.374-48.555 174.561-4.316 15.48-17.48 25.847-33.264 26.29-16.417 0.456-30.581-8.683-34.808-24.682-5.645-21.353-9.873-43.074-14.582-64.668-7.278-33.315-14.506-66.655-21.657-99.995-13.417-62.592-26.695-125.222-40.163-187.813-12.265-56.997-24.733-113.956-37.049-170.941-11.911-55.137-23.746-110.298-35.618-165.435-3.987-18.505-7.962-37.011-11.961-55.504-0.253-1.19-0.785-2.329-1.772-5.152-2.899 9.62-5.43 17.683-7.772 25.796-13.847 47.833-27.632 95.691-41.492 143.525-20.024 69.123-40.125 138.221-60.149 207.344-3.392 11.721-6.329 23.568-9.962 35.213-6.354 20.328-18.429 28.834-39.922 28.783-29.112-0.063-58.212-0.114-87.325-0.127-62.44-0.025-124.867 0.025-187.307-0.139-6.468-0.013-13.278-0.266-19.316-2.278-16.873-5.62-26.214-21.303-23.923-37.175 2.278-15.708 17.733-31.454 36.631-31.29 48.086 0.405 96.185 0.127 144.284 0.114 36.289-0.013 72.566-0.165 108.843 0.051 5.569 0.038 7.696-1.532 9.291-7.101 11.164-39.023 22.986-77.87 34.327-116.842 10-34.353 19.569-68.832 29.48-103.21 11.999-41.644 24.214-83.236 36.239-124.88 16.341-56.605 32.441-113.286 48.985-169.84 5.519-18.872 18.493-28.201 35.973-27.277 17.948 0.949 29.733 11.632 33.859 30.973 10.848 50.858 21.531 101.754 32.454 152.6 11.316 52.656 22.936 105.261 34.251 157.916 15.037 69.984 29.821 140.018 44.897 209.99 11.784 54.719 23.847 109.374 35.758 164.068 3.81 17.493 7.531 34.998 11.316 52.491 0.215 0.987 0.721 1.899 1.721 4.43 3.025-10.961 5.582-20.505 8.278-29.999 14.835-52.225 29.796-104.413 44.542-156.663 8.114-28.745 15.809-57.605 23.834-86.363 12.658-45.403 25.416-90.793 38.188-136.17 6.949-24.708 13.809-49.453 21.088-74.060 6.519-21.999 30.214-32.353 50.073-22.176 8.962 4.595 14.012 12.594 17.556 21.569 11.772 29.733 23.29 59.567 35.024 89.312 22.024 55.782 44.188 111.501 66.111 167.321 1.848 4.709 5.215 4.088 8.708 4.076 47.466-0.051 94.932-0.152 142.385-0.165 36.91-0.013 73.832 0.203 110.741 0.063 16.214-0.063 28.037 6.645 34.986 21.315 10.455 22.075-5.493 48.238-30.555 48.998-26.34 0.81-52.719 0.43-79.085 0.456-67.073 0.051-134.145-0.203-201.205 0.19-21.518 0.127-36.099-8.189-43.871-28.783-12.037-31.884-24.758-63.516-37.213-95.236-10.835-27.606-21.682-55.2-32.543-82.781-0.519-1.316-1.278-2.544-2.557-5.050z" />
</svg>