<svg id="stopwatch_Layer_1" viewBox="0 0 1062 1138" fill="currentColor" width="29.862917" height="32" data-name="Layer 1" xmlns="http://www.w3.org/2000/svg" xmlns:xlink="http://www.w3.org/1999/xlink">
    <path d="M482.76 203.79v-56.3c-4.1 0-8.18 0.03-12.27 0-18.19-0.14-27.38-9.21-27.54-27.36-0.1-12.16-0.11-24.33 0.03-36.49 0.18-15.42 9.29-25.3 24.78-25.43 39.99-0.34 79.99-0.34 119.98 0 14.96 0.12 23.9 9.21 24.39 24.18 0.46 14.14 0.34 28.32-0.05 42.47-0.33 11.83-8.72 20.89-20.45 22.18-6.21 0.68-12.56 0.12-19.47 0.12 0 5.12 0 9.4 0 13.67-0.03 12.16-0.04 24.33-0.1 36.49-0.04 6.56 0.88 7.68 7.56 8.53 26.64 3.37 52.78 9.05 78.43 17.03 59.08 18.4 111.36 48.62 157.34 89.97 42.24 37.98 76.3 82.09 100.93 133.36 18.5 38.52 30.67 79.02 37.59 121.12 5.89 35.85 7.22 71.92 3.79 108.08-4.35 45.92-16.3 89.9-34.75 132.15-22.73 52.05-53.87 98.33-95.17 137.41-57.5 54.41-124.11 92.79-201.76 110.04-102.12 22.68-200.81 12.57-294.07-36.1C213 956.85 137.31 859.83 107.08 729.3 85.57 636.45 94.4 545.29 133.62 457.84c21.12-47.09 50.47-88.72 86.27-125.82 63.21-65.49 140.25-105.11 229.31-122.05 10.94-2.08 21.98-3.67 32.98-5.5 0.13-0.02 0.22-0.24 0.61-0.66zM526.78 696.3c37.37 0.29 65.61-29.81 61.92-67.49-1.03-10.57 1.51-17.44 8.47-25.16 40.67-45.14 80.74-90.82 120.98-136.34 10.81-12.22 21.64-24.42 32.25-36.8 5.93-6.92 4.91-15.39-2-20.53-5.33-3.96-11.57-3.51-17.73 1.88-17.3 15.12-34.49 30.38-51.66 45.65-41.08 36.5-82.17 73-123.15 109.61-6.16 5.5-12.68 7.83-21.02 6.33-5.16-0.93-10.69-0.81-15.92-0.15-32.78 4.17-55.04 32.42-52.97 66.88 1.84 30.72 29.12 55.9 60.83 56.12z" />
    <path d="M887.42 360.8c-7.71-9.17-15.23-18.47-23.12-27.43-17.53-19.93-36.91-37.91-57.81-54.28-6.18-4.84-6-5.36 0.73-9.46 39.53-24.08 86.43 4.09 92.42 40.8 3 18.4-1.07 37.92-12.22 50.37z" />
    <path d="M154.55 321.17c0.7-23.64 11.62-41.11 32.24-52.52 21.38-11.84 42.41-10.09 63.04 2.07 4.29 2.53 4.44 3.84 0.64 6.87-29.43 23.41-56.08 49.59-79.12 79.37-3.19 4.13-4.43 3.98-7.21-0.57-6.6-10.79-9.57-22.58-9.59-35.22z" />
</svg>