<svg viewBox="0 0 1195 1024" fill="currentColor" width="37.34375" height="32" xmlns="http://www.w3.org/2000/svg" xmlns:xlink="http://www.w3.org/1999/xlink">
    <path d="M591.56 196.416c0-11.091 0-20.949 0-30.829 0.027-18.729 0.042-37.454 0.070-56.173 0.013-11.553 8.368-22.478 20.187-26.368 11.483-3.777 24.412 0.17 31.343 9.296 4.568 6.017 6.899 12.564 6.852 20.174-0.152 25.228-0.095 50.432-0.112 75.659 0 2.57 0 5.154 0 9.14 14.812-12.341 28.382-23.658 41.951-34.971 8.060-6.713 16.034-13.548 24.233-20.104 9.182-7.345 25.51-7.174 34.327 0.1 11.309 9.336 14.895 24.865 9.296 36.572-3.369 7.048-8.591 11.752-14.489 16.475-18.798 15.021-37.202 30.52-55.808 45.766-11.806 9.675-23.785 19.136-35.49 28.935-1.798 1.503-3.581 4.309-3.593 6.521-0.239 49.67-0.226 99.344-0.239 149.026 0 0.94 0.226 1.881 0.463 3.551 6.95-4.016 13.561-7.875 20.204-11.667 16.537-9.418 33.145-18.701 49.63-28.194 21.127-12.172 42.203-24.442 63.178-36.88 1.643-0.977 3.062-3.371 3.399-5.32 3.116-18.239 5.765-36.574 8.943-54.81 4.156-23.867 8.691-47.678 13.029-71.516 3.158-17.298 26.999-26.801 42.371-18.050 15.526 8.83 16.72 21.641 14.096 36.937-3.804 22.195-8.015 44.307-12.002 66.463-0.405 2.204-0.505 4.451-0.841 7.567 5.702-3.245 10.725-6.094 15.725-8.97 15.556-8.913 31.097-17.83 46.654-26.743 4.946-2.836 9.728-6.094 14.912-8.408 12.747-5.645 23.785-3.593 32.305 4.568 11.401 10.931 11.609 24.583 5.828 35.634-3.018 5.785-9.482 10.333-15.302 13.984-12.439 7.793-25.48 14.628-38.257 21.893-9.588 5.45-19.149 10.966-28.699 16.483-0.914 0.533-1.672 1.363-3.242 2.678 13.422 4.883 26.111 9.435 38.735 14.11 12.297 4.549 24.653 8.978 36.797 13.899 16.283 6.599 23.332 23.066 17.085 38.958-5.891 14.963-22.422 22.042-38.51 16.174-32.053-11.687-64.040-23.585-96.071-35.337-7.863-2.879-15.753-5.702-23.72-8.282-1.515-0.493-3.747-0.221-5.135 0.575-14.066 8.030-27.941 16.385-42.021 24.36-15.765 8.93-31.783 17.425-47.495 26.42-13.504 7.718-26.746 15.877-40.983 24.36 2.237 1.615 3.874 3.033 5.702 4.073 24.36 13.892 48.732 27.757 73.131 41.571 17.731 10.038 35.49 20.047 53.32 29.894 1.355 0.745 3.637 0.662 5.194 0.112 20.819-7.403 41.611-14.882 62.339-22.504 19.107-7.019 38.313-13.8 57.14-21.507 12.747-5.21 29.516 1.908 35.294 13.491 6.317 12.663 5.702 31.207-9.871 38.749-9.575 4.648-19.486 8.703-29.452 12.454-16.727 6.304-33.626 12.144-51.691 18.631 9.545 5.559 18.113 10.616 26.761 15.569 15.725 9 31.617 17.746 47.229 26.943 11.737 6.91 16.72 17.773 14.882 31.042-1.725 12.494-9.222 20.819-21.632 23.907-8.958 2.231-17.494 0.112-25.328-4.422-18.798-10.881-37.472-21.973-56.226-32.937-4.579-2.678-9.238-5.21-15.178-8.551 1.32 8.142 2.501 15.134 3.581 22.145 3.271 21.102 7.357 42.133 9.493 63.347 1.545 15.4-8.228 26.177-23.28 29.089-15.19 2.936-31.195-8.156-34.004-23.432-4.379-23.825-9.082-47.597-13.195-71.473-2.879-16.727-5.14-33.568-7.397-50.401-0.533-3.916-1.966-6.739-5.306-8.691-16.959-9.883-33.835-19.881-50.873-29.642-21.833-12.506-43.814-24.778-65.674-37.233-5.054-2.879-9.928-6.077-15.683-9.617-0.182 2.936-0.41 4.942-0.41 6.935 0 48.351-0.027 96.676 0.182 145.013 0 2.373 1.503 5.477 3.341 6.992 31.66 26.059 63.473 51.944 95.283 77.833 12.524 10.194 16.349 22.712 11.371 37.643-4.869 14.585-25.859 23.275-38.749 14.785-13.451-8.86-25.875-19.333-38.54-29.383-10.838-8.6-21.389-17.564-32.993-27.151 0 17.647-0.032 34.143 0.013 50.654 0.032 11.078 0.662 22.168 0.196 33.215-0.914 21.227-10.938 31.63-32.57 30.48-4.801-0.253-9.435-3.481-14.096-5.32-3.371 7.775-6.656 16.258-10.685 24.386-4.143 8.338-8.6 16.567-13.631 24.4-14.825 23.053-34.044 41.976-56.173 57.981-17.298 12.506-36.601 20.891-56.552 28.332-41.319 15.4-83.252 15.347-124.898 3.986-24.29-6.639-47.425-17.226-68.261-32.362-25.706-18.68-47.269-41.023-63.095-68.471-12.494-21.65-21.959-44.477-26.296-69.551-5.967-34.549-4.82-68.576 4.761-102.065 5.729-19.991 15.077-38.635 26.177-56.355 12.424-19.814 28.654-36.081 46.397-50.976 2.804-2.356 3.651-4.694 3.651-8.242-0.057-158.588-0.17-317.174 0.17-475.752 0.082-34.763 11.204-66.154 34.566-92.337 13.182-14.774 28.711-26.429 47.565-33.865 23.601-9.308 47.692-12.102 72.47-8.242 15.29 2.373 29.709 8.045 43.353 15.487 22.844 12.467 39.789 30.899 51.734 53.643 9.096 17.338 14.685 36.066 15.037 55.89 0.1 5.882 2.078 9.871 6.709 13.575 16.989 13.575 33.674 27.544 50.495 41.345 1.15 0.94 2.426 1.725 4.619 3.258zM472.731 393.835c0-81.178 0.14-162.378-0.095-243.555-0.057-20.331-5.699-39.045-18.953-55.119-26.969-32.71-79.1-34.454-108.217-3.686-15.795 16.693-23.153 36.557-23.18 59.204-0.070 91.27 0.032 182.555 0.027 273.831 0 72.545-0.095 145.109-0.152 217.653 0 12.317-5.952 21.451-15.905 28.049-19.176 12.747-35.084 28.634-46.402 48.716-5.576 9.883-11.008 20.066-14.727 30.732-3.551 10.15-5.615 21.001-6.892 31.721-3.424 28.76 0.042 56.845 11.766 83.464 12.707 28.851 32.78 51.861 58.756 69.495 29.889 20.286 63.19 29.482 99.194 27.209 33.626-2.12 64.106-13.631 90.118-35.249 32.615-27.121 53.407-61.267 58.853-103.935 3.271-25.623 1.080-50.836-7.51-75.124-7.345-20.766-18.096-39.898-33.918-55.611-7.277-7.23-14.389-15.22-23.053-20.331-13.262-7.805-19.724-18.176-19.711-33.296 0.070-81.386 0.032-162.773 0.027-244.16zM530.683 223.525c0 3.804 0 6.773 0 9.734-0.082 51.944-0.158 103.878-0.284 155.821 0 3.441 0.725 5.615 4.282 7.54 14.377 7.805 28.442 16.188 42.596 24.372 4.648 2.683 9.253 5.447 14.335 8.425 0.127-1.782 0.266-2.709 0.253-3.637-0.127-47.93-0.493-95.875-0.182-143.806 0.042-7.37-2.667-11.435-8.096-15.472-9-6.683-17.521-14.026-26.226-21.127-8.663-7.074-17.298-14.166-26.681-21.873zM591.699 531.168c-3.328 1.712-5.715 2.809-8.002 4.113-16.243 9.208-32.414 18.545-48.732 27.614-3.062 1.699-4.296 3.568-4.282 7.088 0.095 16.223 0.605 32.477-0.423 48.632-0.478 7.51 2.431 11.401 7.328 16.131 12.158 11.766 23.911 24.007 35.111 36.696 5.572 6.317 9.575 14.018 14.21 20.989 5.559-3.258 4.814-8.002 4.801-12.564-0.027-49.172-0.013-98.359-0.013-148.702zM560.447 480.348c-10.106-5.952-19.516-11.471-29.44-17.31v34.606c9.98-5.855 19.346-11.371 29.44-17.294z" />
    <path d="M426.54 600.98c0 26.168 0.112 52.327-0.112 78.48-0.032 4.394 1.672 5.867 5.502 6.962 31.478 8.943 54.905 28.093 70.787 56.579 12.058 21.593 16.972 44.686 14.641 69.369-1.346 14.25-5.519 27.532-11.697 40.378-11.483 23.846-28.724 42.245-52.213 54.247-25.421 12.974-52.367 17.803-80.543 10.951-25.018-6.081-46.638-17.93-64.166-37.442-11.356-12.637-19.194-26.926-25.143-42.526-5.135-13.451-5.477-27.587-5.685-41.738-0.378-25.789 9.208-48.171 24.526-68.147 13.561-17.691 31.013-30.802 51.821-39.127 2.615-1.040 5.519-1.46 8.348-1.868 4.434-0.659 6.395-2.557 6.36-7.529-0.226-28.458-0.1-56.921-0.057-85.386 0.032-24.456 0.715-48.928-0.013-73.364-0.493-16.833 16.475-32.332 34.934-28.189 10.318 2.317 20.961 11.496 21.829 23.010 0.715 9.505 0.841 19.058 0.911 28.599 0.127 18.911 0.032 37.821 0.032 56.734-0.013 0-0.032 0-0.042 0z" />
</svg>