<svg viewBox="0 0 1342 1024" fill="currentColor" width="41.9375" height="32" xmlns="http://www.w3.org/2000/svg" xmlns:xlink="http://www.w3.org/1999/xlink">
    <path d="M617.58 329.532c25.927-32.557 53.672-63.871 73.172-100.995 20.285-38.609 28.522-79.323 16.927-122.465-3.048-11.352 0.964-20.274 8.945-27.18 7.748-6.718 17.348-7.060 26.526-2.372 24.165 12.36 48.086 25.195 68.682 43.209 15.198 13.291 29.098 28.012 39.673 45.16 23.6 38.288 36.702 79.689 35.738 125.281-0.487 23.178-3.171 45.969-6.729 68.771-1.207 7.793-1.851 15.807-1.53 23.678 0.366 9.068 4.7 11.761 13.701 10.42 7.206-1.075 12.050-5.499 15.752-11.174 11.206-17.17 16.35-36.081 15.518-56.611-0.333-8.27-1.264-16.628-0.487-24.808 0.931-9.755 6.661-16.738 16.406-19.466 10.553-2.959 20.196-1.464 27.678 7.327 18.457 21.705 34.076 45.37 47.731 70.31 14.133 25.783 25.362 52.83 33.576 81.075 16.339 56.223 20.972 112.821 7.416 170.53-5.952 25.34-14.2 49.65-26.172 72.573-15.119 28.943-34.463 55.003-58.572 77.129-13.424 12.326-27.236 24.52-42.256 34.741-14.632 9.965-30.993 17.403-46.678 25.794-5.022 2.682-10.198 5.133-15.486 7.228-11.939 4.722-24.609 0.843-31.292-9.289-6.862-10.409-5.665-25.484 2.572-34.251 15.874-16.882 28.765-35.616 34.020-58.572 7.36-32.18 2.427-62.519-16.273-89.832-9.322-13.613-20.096-26.261-30.638-38.985-18.102-21.826-37.944-42.344-51.434-67.629-4.379-8.214-7.693-16.993-11.716-26.005-8.026 10.741-11.285 22.691-12.826 35.25-2.417 19.787 1.441 38.897 6.075 57.996 2.028 8.358 3.703 17.015 3.924 25.573 0.632 24.265-16.384 38.631-39.407 40.327-20.895 1.541-36.514-7.948-49.383-23.323-1.297-1.551-2.56-3.148-3.891-4.678-0.321-0.366-0.908-0.51-2.56-1.408-2.372 10.563-4.811 20.663-6.751 30.86-0.333 1.74 1.075 4.235 2.372 5.808 12.193 14.721 19.31 32.057 26.504 49.483 9.455 22.89 13.291 46.823 13.613 71.253 0.366 27.867-4.19 55.015-14.899 81.031-9.932 24.132-23.778 45.759-41.036 65.101-13.811 15.486-30.484 27.691-48.43 38.11-22.613 13.125-46.556 22.425-72.584 26.338-26.582 3.99-52.676 2.793-79.080-2.66-23.943-4.945-45.558-14.642-65.966-27.169-27.458-16.838-49.405-39.595-66.62-66.852-25.872-40.97-36.059-85.796-30.828-133.706 3.691-33.754 14.388-65.534 33.865-93.778 12.294-17.835 26.105-34.397 43.919-47.132 2.793-2.006 4.567-4.101 4.556-8.059-0.156-115.404-0.188-230.809-0.2-346.213 0-39.884-0.1-79.767 0.299-119.639 0.289-28.798 10.187-54.293 27.612-77.185 15.119-19.864 34.375-33.809 57.962-41.369 23.633-7.572 47.71-9.012 72.052-2.748 40.747 10.486 68.87 35.837 85.608 73.781 6.718 15.23 9.578 31.758 9.578 48.574-0.010 49.073-0.089 98.157-0.133 147.228 0 8.447 0 16.893 0 25.34 0.632 0.1 1.252 0.188 1.885 0.289zM562.144 399.377h-0.133c0-63.506 0.077-127.010-0.045-190.516-0.033-19.742 0.853-39.628-1.186-59.181-4.755-45.481-47.998-75.876-96.571-59.359-27.191 9.244-47.055 37.333-47.022 70.966 0.1 104.596 0.143 209.194 0.156 313.801 0 54.97-0.188 109.929-0.067 164.898 0.022 10.797-5.165 17.758-13.645 23.589-7.981 5.487-16.040 11.196-22.78 18.068-7.926 8.069-14.976 17.148-21.516 26.404-14.986 21.205-22.968 45.182-25.34 70.899-3.126 33.975 4.866 65.467 22.358 94.687 20.972 35.017 51.445 58.151 90.209 69.425 39.762 11.562 78.447 8.092 115.616-11.772 19.288-10.308 35.328-23.778 48.695-40.759 16.539-21.017 28.411-44.262 32.655-70.932 5.753-36.159 0.754-70.466-17.658-102.535-11.184-19.476-25.385-36.302-43.974-48.873-14.565-9.843-20.44-21.893-20.186-40.16 1.054-76.208 0.443-152.428 0.443-228.648zM763.745 148.195c-0.499 0.632-0.688 0.754-0.688 0.886 0.765 41.425-12.282 79.268-31.958 114.751-10.486 18.911-23.955 36.247-36.779 53.773-10.753 14.698-22.701 28.51-33.82 42.943-8.636 11.206-16.972 22.669-25.141 34.219-12.648 17.869-23.278 36.48-19.166 59.769 0.188 1.075 0 2.206 0 3.315 0.055 49.439 0.122 98.888 0.178 148.326 0 2.35 0 4.7 0 6.907 9.511-17.647 18.911-34.706 27.911-51.977 2.872-5.499 7.018-9.023 12.67-10.73 15.198-4.601 31.471-0.487 34.818 20.463 1.474 9.212 4.922 17.714 10.021 25.751-1.33-9.633-3.026-18.855-3.812-28.167-2.272-27.191-0.244-53.484 12.537-78.647 12.913-25.44 31.824-44.96 54.471-61.355 9.411-6.817 19.731-6.618 29.707-0.865 8.802 5.077 12.094 13.346 11.24 23.023-2.018 22.857 5.11 43.387 17.847 61.433 12.614 17.869 26.892 34.685 41.579 50.946 21.294 23.589 40.438 48.574 52.010 78.326 10.553 27.146 12.87 55.49 7.704 84.3-0.321 1.806-0.532 3.647-0.799 5.464 0.609 0.333 1.22 0.654 1.829 0.987 6.308-6.661 12.514-13.435 18.955-19.963 22.358-22.658 39.040-49.106 50.214-78.691 5.964-15.797 10.343-32.379 13.512-48.973 5.986-31.292 5.032-62.685-0.886-94.088-7.261-38.531-19.265-75.178-40.017-109.519-1.474 3.248-2.804 6.019-4.013 8.845-5.509 12.814-12.737 24.541-22.757 34.286-20.119 19.564-43.807 26.815-71.065 18.59-15.497-4.678-27.789-13.734-35.172-28.954-7.471-15.408-8.735-31.625-7.105-48.075 1.973-19.998 5.975-39.806 7.449-59.824 3.558-48.231-7.738-92.16-39.972-129.583-9.223-10.708-19.554-19.985-31.514-27.879z" />
    <path d="M517.505 488.767c0 61.288 0.067 122.577-0.122 183.864-0.022 5.254 1.519 7.738 6.528 9.366 26.36 8.524 47.498 24.242 62.773 47.421 14.333 21.748 21.017 45.669 19.265 71.808-2.018 30.085-14.432 55.547-35.792 76.286-21.759 21.128-48.109 32.822-78.835 32.035-12.072-0.31-24.653-1.23-36.015-4.922-25.395-8.257-46.635-22.912-61.588-45.936-8.657-13.335-15.574-27.169-18.058-42.931-5.054-31.98-0.71-61.831 18.756-88.868 16.616-23.079 38.132-38.476 65.423-46.169 1.385-0.389 2.86-3.436 2.872-5.254 0.156-24.342 0.033-48.673 0.033-73.016 0-97.991 0.022-195.992 0.111-293.981 0-5.143 0.067-10.454 1.319-15.386 3.037-11.95 14.133-19.831 26.315-19.554 12.072 0.277 23.555 10.043 26.060 22.568 0.821 4.124 0.987 8.435 0.987 12.67 0.055 59.992 0.045 119.982 0.045 179.985h-0.077z" />
</svg>