<svg viewBox="0 0 1347 1024" fill="currentColor" width="42.09375" height="32" xmlns="http://www.w3.org/2000/svg" xmlns:xlink="http://www.w3.org/1999/xlink">
    <path d="M967.668 491.92c-3.632 15.632-6.961 29.823-10.221 44.048-11.582 50.485-23.13 100.981-34.688 151.478-7.416 32.396-14.772 64.802-22.268 97.175-1.001 4.307-2.759 8.427-3.992 12.688-4.691 16.215-20.371 20.79-35.678 16.715-9.452-2.515-15.575-8.904-17.147-18.509-2.689-16.413-5.041-32.907-6.926-49.437-5.39-47.319-10.557-94.649-15.632-142.002-2.386-22.326-4.086-44.735-6.565-67.061-4.248-38.274-9.045-76.489-13.293-114.763-3.19-28.671-5.727-57.423-8.835-86.104-2.084-19.219-4.656-38.379-8.090-57.679-1.093 6.262-2.27 12.513-3.259 18.8-4.924 31.36-9.871 62.708-14.679 94.079-5.064 33.059-9.777 66.165-15.016 99.2-8.602 54.256-17.531 108.454-26.261 162.688-1.781 11.082-3.294 22.199-4.89 33.304-1.967 13.712-11.676 23.549-24.306 24.561-15.319 1.234-27.506-6.717-31.395-21-8.673-31.86-17.123-63.778-25.679-95.661-0.488-1.804-1.152-3.563-2.724-5.344-0.652 4.854-1.258 9.72-1.979 14.562-5.971 40.171-12.072 80.319-17.914 120.503-6.543 45.002-12.793 90.039-19.276 135.041-5.716 39.636-11.477 79.26-17.46 118.85-0.791 5.262-2.2 10.767-4.761 15.378-4.994 8.998-17.205 13.422-28.356 11.35-10.954-2.038-19.94-10.175-21.616-20.79-4.039-25.597-7.705-51.265-11.43-76.909-4.609-31.79-9.22-63.592-13.619-95.417-3.027-21.849-5.541-43.768-8.556-65.617-3.958-28.752-8.206-57.458-12.292-86.186-5.529-38.89-11.082-77.782-16.495-116.685-5.39-38.716-10.639-77.444-15.935-116.172-0.361-2.677-0.652-5.367-2.048-8.206-0.92 6.507-1.874 13.014-2.759 19.533-4.668 34.118-9.348 68.225-13.981 102.344-5.052 37.203-10.116 74.407-15.062 111.621-3.341 25.132-6.193 50.322-9.906 75.396-0.908 6.099-3.341 12.491-6.774 17.601-6.681 9.929-17.134 12.141-28.356 10.034-10.86-2.038-18.008-9.138-21.314-19.3-10.162-31.231-19.987-62.568-29.719-93.939-11.664-37.622-23.095-75.326-34.642-112.984-0.385-1.268-0.931-2.491-1.712-4.587-3.201 8.917-6.111 17.053-9.056 25.178-9.207 25.412-18.381 50.823-27.657 76.211-4.68 12.816-14.341 18.869-27.635 18.928-37.214 0.162-74.43 0.221-111.644 0-15.924-0.093-29.090-13.596-28.228-28.543 0.885-15.4 11.838-28.671 29.078-28.368 28.682 0.513 57.376 0.035 86.058 0.21 4.656 0.023 6.879-1.106 8.591-5.925 10.080-28.415 20.756-56.609 31.069-84.941 8.265-22.688 16.471-45.386 24.398-68.19 4.423-12.711 14.085-20.185 27.297-20.185 12.502 0 23.211 7.729 26.995 19.777 12.572 39.997 25.050 80.017 37.563 120.025 5.169 16.518 10.349 33.035 16.728 49.543 0.885-6.553 1.781-13.107 2.667-19.661 4.633-34.118 9.405-68.213 13.841-102.355 3.842-29.532 7.043-59.157 10.976-88.677 4.528-33.944 9.649-67.805 14.306-101.726 2.783-20.313 4.982-40.695 7.799-61.008 1.245-8.963 2.864-17.949 5.192-26.692 3.259-12.281 14.69-20.092 27.075-19.439 12.99 0.687 23.525 9.777 25.725 23.549 4.11 25.796 7.601 51.684 11.373 77.526 3.748 25.656 7.683 51.288 11.245 76.979 3.108 22.431 5.588 44.956 8.753 67.375 4.272 30.265 9.103 60.461 13.409 90.726 4.633 32.57 8.917 65.198 13.375 97.791 5.344 39.112 10.745 78.224 16.064 117.336 1.769 13.037 3.365 26.097 5.064 39.136 0.198 1.478 0.594 2.934 2.038 4.458 1.432-9.918 2.783-19.859 4.295-29.764 3.691-24.072 7.695-48.11 11.117-72.218 4.436-31.22 8.288-62.52 12.664-93.74 4.505-32.175 9.348-64.302 14.004-96.454 1.641-11.292 3.143-22.606 4.772-33.908 3.131-21.709 22.024-32.675 41.347-23.759 8.044 3.714 12.362 11.245 14.679 19.184 9.173 31.511 17.775 63.196 26.575 94.823 0.663 2.374 1.234 4.772 2.689 7.217 1.34-8.009 2.677-16.007 4.004-24.015 4.598-27.647 9.313-55.269 13.759-82.95 3.039-18.893 5.564-37.866 8.568-56.76 9.068-57.12 18.358-114.205 27.355-171.336 3.491-22.175 6.297-44.455 9.708-66.643 3.015-19.673 6.519-39.275 9.649-58.924 1.34-8.404 2.213-16.879 3.422-25.306 1.455-10.103 5.808-18.311 15.306-23.211 16.913-8.707 36.924 0.477 40.195 19.3 2.34 13.515 3.027 27.309 4.633 40.963 4.144 35.364 8.532 70.716 12.56 106.091 3.411 30.009 6.379 60.065 9.708 90.086 2.841 25.586 6.042 51.137 8.847 76.734 2.235 20.394 3.911 40.859 6.204 61.252 4.004 35.584 8.347 71.124 12.42 106.708 2.538 22.116 4.784 44.257 7.287 66.374 0.501 4.365 1.618 8.649 3.457 12.99 3.143-14.656 6.089-29.369 9.464-43.977 10.593-45.746 21.395-91.448 32.024-137.184 6.461-27.845 12.723-55.735 19.113-83.602 4.039-17.66 15.994-25.959 33.677-22.688 11.931 2.213 18.787 10.453 21.454 21.838 2.783 11.85 4.691 23.91 7.089 35.841 4.12 20.44 8.486 40.835 12.467 61.311 8.509 43.664 16.681 87.385 25.296 131.026 8.45 42.86 17.285 85.64 25.923 128.465 0.757 3.737 1.315 7.52 3.317 11.582 0.617-1.374 1.42-2.689 1.815-4.12 9.358-33.479 18.52-67.003 28.135-100.411 2.316-8.044 4.924-16.086 12.595-21.536 5.319-3.783 11.070-4.587 16.902-4.609 39.729-0.221 79.469-0.198 119.211-0.082 12.478 0.035 24.922 11.733 25.959 23.84 1.374 16.122-7.345 29.334-21.361 31.918-4.155 0.768-8.474 0.978-12.711 0.989-29.66 0.012-59.309-0.093-88.968-0.151-0.56 0-1.117 0.175-2.025 0.338-4.365 15.097-8.753 30.265-13.13 45.445-6.53 22.629-13.13 45.235-19.544 67.899-5.786 20.44-11.35 40.952-17.007 61.427-2.619 9.499-5.226 19.010-7.846 28.508-3.632 13.165-14.621 21.302-28.402 21.045-12.491-0.233-23.468-8.625-26.156-21.523-7.229-34.654-13.91-69.412-20.837-104.136-5.948-29.776-12.059-59.53-17.891-89.329-7.392-37.762-14.516-75.57-21.884-113.344-2.887-14.783-6.076-29.509-9.161-44.257-0.257-1.211-0.768-2.364-1.618-4.89z" />
</svg>